<svg data-v-0dd9719b="" version="1.0" xmlns="http://www.w3.org/2000/svg" xmlns:xlink="http://www.w3.org/1999/xlink" width="100%" height="100%" viewBox="0 0 340.000000 250.000000" preserveAspectRatio="xMidYMid meet" color-interpolation-filters="sRGB" style="margin: auto;"> <rect data-v-0dd9719b="" x="0" y="0" width="100%" height="100%" fill="#fff" fill-opacity="1" class="background"></rect> <rect data-v-0dd9719b="" x="0" y="0" width="100%" height="100%" fill="url(#watermark)" fill-opacity="1" class="watermarklayer"></rect> <g data-v-0dd9719b="" fill="#333" class="icon-text-wrapper icon-svg-group iconsvg" transform="translate(48.279998779296875,95.00180053710938)"><g class="iconsvg-imagesvg" transform="translate(0,0)"><g><rect fill="#333" fill-opacity="0" stroke-width="2" x="0" y="0" width="60" height="59.996400215987045" class="image-rect"></rect> <svg x="0" y="0" width="60" height="59.996400215987045" filtersec="colorsb7711609308" class="image-svg-svg primary" style="overflow: visible;"><svg xmlns="http://www.w3.org/2000/svg" viewBox="-0.005915164947509766 -0.0032501220703125 100.00916290283203 100.00305938720703"><path d="M97.79 58.53L87.06 44.81a58.94 58.94 0 0 1-5-7.79L72.32 42l-9.14 27.73 4.92 9.75a60.75 60.75 0 0 1 8.64-3.3l16.78-4.67c6.48-1.81 8.48-7.65 4.27-12.98z" fill="#00d495"></path><path d="M30.27 63.18l-9.76 4.92a58.55 58.55 0 0 1 3.31 8.64l4.67 16.78c1.81 6.52 7.65 8.45 13 4.27l13.7-10.73a58.94 58.94 0 0 1 7.79-5l-4.93-9.75z" fill="#7fe000"></path><path d="M36.82 30.27l-4.93-9.76a57.37 57.37 0 0 1-8.63 3.31L6.48 28.49C0 30.3-2 36.14 2.2 41.47l10.74 13.72a58.94 58.94 0 0 1 5 7.79l9.75-4.93z" fill="#00a2ff"></path><path d="M69.73 36.82l9.75-4.92a60 60 0 0 1-3.3-8.64L71.51 6.48C69.7 0 63.85-2 58.53 2.21L44.81 12.94a58.94 58.94 0 0 1-7.79 5L42 27.68z" fill="#00c0d9"></path></svg></svg> <!----></g></g> <g transform="translate(67,5.421947479248047)"><g data-gra="path-name" fill-rule="" class="tp-name iconsvg-namesvg" transform="translate(0,0)"><g transform="scale(1)"><g><path d="M14.7-0.11L14.7-19.54 30.67-19.54 30.67-2.92Q30.67-1.76 29.85-0.94 29.02-0.11 27.86-0.11L27.86-0.11 14.7-0.11ZM1.95 5.85L6.34-4.5 6.34-8.85 12.34-8.85 12.34-4.01 8.17 5.85 1.95 5.85ZM1.95-18.52L8.17-18.52 12.34-10.69 6.11-10.69 1.95-18.52ZM1.95-28.01L8.17-28.01 12.34-20.18 6.11-20.18 1.95-28.01ZM13.5-23.96L13.5-27.68 43.42-27.68 42.07-23.96 40.09-23.96 40.09 0.19 38.48 5.85 32.55 5.85 34.13 0.19 34.13-23.96 13.5-23.96ZM20.74-3.79L24.86-3.79 24.86-15.82 20.74-15.82 20.74-3.79ZM47.48-22.2L47.48-25.91 64.5-25.91 64.5-28.35 70.5-28.35 70.5-25.91 87.49-25.91 86.14-22.2 70.5-22.2 70.5-19.69 85.76-19.69 85.76 0.94 84.45 5.85 78.41 5.85 79.76 0.94 79.76-16.01 55.24-16.01 55.24 5.85 49.24 5.85 49.24-19.69 64.5-19.69 64.5-22.2 47.48-22.2ZM56.44 0.22L56.44-3.49 64.46-3.49 64.46-6.64 56.74-6.64 56.74-10.35 59.81-10.35 58.39-14.25 64.2-14.25 65.66-10.35 69.34-10.35 70.8-14.25 76.61-14.25 75.19-10.35 78.3-10.35 76.95-6.64 70.54-6.64 70.54-3.49 78.64-3.49 77.29 0.22 70.54 0.22 70.54 5.33 64.46 5.33 64.46 0.22 56.44 0.22ZM92.4-0.41L92.4-20.59 101.03-20.59 101.81-22.72 91.8-22.72 93.38-28.35 98.89-28.35 98.33-26.4 107.29-26.4 107.29-22.72 106.54-20.59 108.22-20.59 108.22-3.26Q108.22-2.06 107.47-1.24 106.72-0.41 105.67-0.41L105.67-0.41 92.4-0.41ZM91.65 5.85L91.65 2.14 108.97 1.05 108.97 4.76 91.65 5.85ZM97.31-4.13L98.51-4.13 98.51-8.66 97.31-8.66 97.31-4.13ZM97.31-12.38L98.51-12.38 98.51-16.88 97.31-16.88 97.31-12.38ZM102.22-4.13L103.35-4.13 103.35-8.66 102.22-8.66 102.22-4.13ZM102.22-12.38L103.35-12.38 103.35-16.88 102.22-16.88 102.22-12.38ZM109.13-22.61L109.13-26.32 117.67-26.32 117.38-28.31 123.38-28.31 123.67-26.32 133.31-26.32 131.96-22.61 109.13-22.61ZM109.31 5.85L111.3-5.06 117.15-5.06 115.16 5.85 109.31 5.85ZM110.89-7.72L110.89-20.77 130.99-20.77 130.99-10.54Q130.99-9.38 130.16-8.55 129.34-7.72 128.14-7.72L128.14-7.72 123.86-7.72 123.86 1.99 122.78 5.85 116.92 5.85 118.01 1.99 118.01-7.72 110.89-7.72ZM116.7-11.4L125.14-11.4 125.14-17.06 116.7-17.06 116.7-11.4ZM124.72-5.06L130.57-5.06 132.53 5.85 126.71 5.85 124.72-5.06ZM152.89-15L152.89-18.9 154.95-19.39 154.95-25.2 160.8-25.2 160.8-20.81 163.13-21.34 163.13-28.35 168.6-28.35 168.6-22.65 176.81-24.64 176.81-3.9 175.99 0.49 170.18 0.49 171-3.9 171-19.39 168.6-18.79 168.6 0.49 163.13 0.49 163.13-17.47 160.8-16.91 160.8 2.14 178.39 2.14 177.04 5.85 157.8 5.85Q156.64 5.85 155.79 5.02 154.95 4.2 154.95 3L154.95 3 154.95-15.49 152.89-15ZM136.65-23.96L136.65-27.68 152.66-27.68 151.5-13.57 152.85-13.57 152.85 1.69 150.34 5.85 143.93 5.85 147 0.67 147-9.86 137.1-9.86 137.85-22.31 143.7-22.31 143.14-13.57 145.69-13.57 146.55-23.96 136.65-23.96ZM136.84-2.02L136.84-5.74 145.91-5.74 144.56-2.02 136.84-2.02Z" transform="translate(-1.9500000476837158, 28.350000381469727)"></path></g> <!----> <!----> <!----> <!----> <!----> <!----> <!----></g></g> <g data-gra="path-slogan" fill-rule="" class="tp-slogan iconsvg-slogansvg" fill="#333" transform="translate(5,40.20000076293945)"><rect x="0" height="1" y="3.9750003814697266" width="34.70500183105469"></rect> <rect height="1" y="3.9750003814697266" width="34.70500183105469" x="131.73500061035156"></rect> <g transform="translate(37.70500183105469,0)"><g transform="scale(1)"><path d="M2.06-5.06L6.56-5.06L6.56-8.58L7.73-8.58L7.73 0L6.56 0L6.56-3.98L2.06-3.98L2.06 0L0.89 0L0.89-8.58L2.06-8.58L2.06-5.06ZM10.83-1.03L15.98-1.03L15.98 0L9.66 0L9.66-8.58L15.89-8.58L15.89-7.59L10.83-7.59L10.83-4.92L15.52-4.92L15.52-3.89L10.83-3.89L10.83-1.03ZM18.89-8.58L23.20-1.64L23.20-8.58L24.33-8.58L24.33 0L23.02 0L18.66-6.94L18.61-6.94L18.61 0L17.48 0L17.48-8.58L18.89-8.58ZM31.78 0L30.94-2.48L27.47-2.48L26.58 0L25.41 0L28.64-8.58L29.95-8.58L33.05 0L31.78 0ZM29.20-7.31L27.84-3.52L30.52-3.52L29.25-7.31L29.20-7.31ZM35.48-8.58L39.80-1.64L39.80-8.58L40.92-8.58L40.92 0L39.61 0L35.25-6.94L35.20-6.94L35.20 0L34.08 0L34.08-8.58L35.48-8.58ZM45.33-1.92L45.33-2.77L46.41-2.77L46.41-2.16Q46.41-0.75 47.72-0.75L47.72-0.75Q49.08-0.75 49.08-2.25L49.08-2.25L49.08-8.58L50.25-8.58L50.25-2.30Q50.20 0.09 47.77 0.14L47.77 0.14Q45.47 0.09 45.33-1.92L45.33-1.92ZM52.22-8.58L53.39-8.58L53.39 0L52.22 0L52.22-8.58ZM56.77-8.58L61.08-1.64L61.08-8.58L62.20-8.58L62.20 0L60.89 0L56.53-6.94L56.48-6.94L56.48 0L55.36 0L55.36-8.58L56.77-8.58ZM70.41-3.61L67.78-3.61L67.78-4.59L71.53-4.59L71.53 0L70.78 0L70.50-1.08Q69.52 0.09 67.69 0.14L67.69 0.14Q65.95 0.14 65.02-0.75L65.02-0.75Q63.61-2.06 63.66-4.36L63.66-4.36Q63.98-8.63 67.73-8.81L67.73-8.81Q70.92-8.63 71.39-6L71.39-6L70.27-6Q69.80-7.78 67.69-7.83L67.69-7.83Q65.02-7.64 64.88-4.31L64.88-4.31Q64.88-0.75 67.73-0.75L67.73-0.75Q68.77-0.75 69.52-1.31L69.52-1.31Q70.45-2.06 70.41-3.61L70.41-3.61ZM80.48-6.05L80.48-6.05L79.36-6.05Q78.94-7.78 76.97-7.83L76.97-7.83Q74.25-7.69 74.16-4.36L74.16-4.36Q74.16-0.80 77.02-0.80L77.02-0.80Q78.98-0.84 79.45-3.19L79.45-3.19L80.58-3.19Q80.06 0.05 76.78 0.14L76.78 0.14Q73.03 0 72.94-4.31L72.94-4.31Q73.13-8.63 76.97-8.81L76.97-8.81Q80.02-8.72 80.48-6.05ZM83.11-5.06L87.61-5.06L87.61-8.58L88.78-8.58L88.78 0L87.61 0L87.61-3.98L83.11-3.98L83.11 0L81.94 0L81.94-8.58L83.11-8.58L83.11-5.06ZM90.75-8.58L91.92-8.58L91.92 0L90.75 0L90.75-8.58Z" transform="translate(-0.890625, 8.8125)"></path></g></g></g></g></g><defs v-gra="od"></defs></svg>